<svg xmlns="http://www.w3.org/2000/svg" width="128" height="128" viewBox="0 0 128 128" role="img" aria-label="Sleep icon">
  <defs>
    <radialGradient id="ground" cx="36%" cy="26%" r="86%">
      <stop offset="0" stop-color="#f0d1ad"/>
      <stop offset=".22" stop-color="#c37d67"/>
      <stop offset=".58" stop-color="#3f271e"/>
      <stop offset="1" stop-color="#080504"/>
    </radialGradient>
    <radialGradient id="ember" cx="36%" cy="28%" r="76%">
      <stop offset="0" stop-color="#fff1d7"/>
      <stop offset=".46" stop-color="#d69b76"/>
      <stop offset="1" stop-color="#5d3829"/>
    </radialGradient>
    <linearGradient id="fold" x1="20" y1="32" x2="112" y2="100">
      <stop stop-color="#f3c69a" stop-opacity=".72"/>
      <stop offset=".44" stop-color="#bc6e5d" stop-opacity=".52"/>
      <stop offset="1" stop-color="#150d0a" stop-opacity=".72"/>
    </linearGradient>
    <filter id="soft" x="-30%" y="-30%" width="160%" height="160%">
      <feGaussianBlur stdDeviation=".35"/>
      <feDropShadow dx="0" dy="10" stdDeviation="10" flood-color="#050302" flood-opacity=".42"/>
    </filter>
  </defs>
  <rect width="128" height="128" rx="34" fill="#070403"/>
  <circle cx="64" cy="64" r="50" fill="url(#ground)"/>
  <g filter="url(#soft)">
    <path d="M25 78c17-23 42-35 75-35 9 8 12 19 8 32-5 18-21 28-47 29-18 0-32-5-43-15 0-4 2-8 7-11z" fill="#100a08" opacity=".9"/>
    <path d="M24 80c21 12 43 17 67 13 8-1 15-4 21-8-6 14-22 23-48 24-19 0-35-6-47-18 1-4 3-8 7-11z" fill="url(#fold)"/>
    <path d="M40 63c15-8 33-12 55-10" fill="none" stroke="#f6d0a2" stroke-width="5.5" stroke-linecap="round" opacity=".42"/>
    <path d="M36 84c17 7 36 10 58 6" fill="none" stroke="#ffe7bd" stroke-width="3.25" stroke-linecap="round" opacity=".36"/>
    <path d="M81 29c-7 7-9 18-4 27 5 9 14 13 25 11-7 9-18 13-30 9-14-5-22-17-20-31 2-12 12-20 29-16z" fill="url(#ember)" opacity=".92"/>
  </g>
</svg>
