<svg xmlns="http://www.w3.org/2000/svg" width="128" height="128" viewBox="0 0 128 128" role="img" aria-label="Sleep icon">
  <defs>
    <filter id="d" x="-35%" y="-35%" width="170%" height="170%" color-interpolation-filters="sRGB">
      <feDropShadow dx="0" dy="10" stdDeviation="6" flood-color="#2b211d" flood-opacity=".15"/>
      <feDropShadow dx="0" dy="1" stdDeviation="1" flood-color="#fffaf4" flood-opacity=".52"/>
    </filter>
    <linearGradient id="cream" x1="22" y1="22" x2="108" y2="111" gradientUnits="userSpaceOnUse">
      <stop stop-color="#fff8ef"/>
      <stop offset="1" stop-color="#e6d8c6"/>
    </linearGradient>
    <linearGradient id="blue" x1="24" y1="20" x2="107" y2="112" gradientUnits="userSpaceOnUse">
      <stop stop-color="#9fb1cc"/>
      <stop offset=".58" stop-color="#6d86aa"/>
      <stop offset="1" stop-color="#465c80"/>
    </linearGradient>
    <linearGradient id="clay" x1="22" y1="28" x2="108" y2="112" gradientUnits="userSpaceOnUse">
      <stop stop-color="#e7a091"/>
      <stop offset=".56" stop-color="#c17660"/>
      <stop offset="1" stop-color="#865443"/>
    </linearGradient>
    <linearGradient id="gold" x1="28" y1="18" x2="104" y2="110" gradientUnits="userSpaceOnUse">
      <stop stop-color="#f3d77a"/>
      <stop offset=".58" stop-color="#cf9b47"/>
      <stop offset="1" stop-color="#8e6230"/>
    </linearGradient>
    <linearGradient id="ink" x1="26" y1="24" x2="104" y2="112" gradientUnits="userSpaceOnUse">
      <stop stop-color="#6a5c4c"/>
      <stop offset="1" stop-color="#3d352e"/>
    </linearGradient>
  </defs>
  <g filter="url(#d)">
    <path d="M23 91c16-9 36-13 60-10 12 1 22 4 31 9" fill="none" stroke="url(#blue)" stroke-width="7" stroke-linecap="round" opacity=".85"/>
    <path d="M31 75c14-18 35-28 63-29 10 6 15 15 14 27-2 17-17 28-42 31-19 2-35-3-48-16 1-5 5-10 13-13Z" fill="url(#cream)"/>
    <path d="M22 83c19 11 40 16 64 12 10-2 18-5 25-10-7 12-22 20-43 22-21 2-38-4-51-18 1-3 3-5 5-6Z" fill="url(#clay)"/>
    <path d="M43 63c12-7 28-10 48-9" fill="none" stroke="url(#ink)" stroke-width="4.5" stroke-linecap="round" opacity=".32"/>
    <path d="M38 85c17 7 35 9 56 5" fill="none" stroke="#fff3df" stroke-width="3.8" stroke-linecap="round" opacity=".58"/>
    <path d="M80 26c-8 7-10 18-5 28s15 14 27 12c-7 9-18 13-30 9-14-5-22-18-19-32 2-12 12-20 27-17Z" fill="url(#gold)"/>
    <circle cx="38" cy="47" r="3.2" fill="url(#gold)" opacity=".64"/>
    <circle cx="100" cy="39" r="2.4" fill="url(#blue)" opacity=".72"/>
  </g>
</svg>
